<?xml version="1.0" standalone="no"?>
<!DOCTYPE svg PUBLIC "-//W3C//DTD SVG 20010904//EN"
 "http://www.w3.org/TR/2001/REC-SVG-20010904/DTD/svg10.dtd">
<svg version="1.0" xmlns="http://www.w3.org/2000/svg"
 width="225.000000pt" height="225.000000pt" viewBox="0 0 225.000000 225.000000"
 preserveAspectRatio="xMidYMid meet">

<g transform="translate(0.000000,225.000000) scale(0.100000,-0.100000)"
fill="#000000" stroke="none">
<path d="M0 1125 l0 -1125 1125 0 1125 0 0 1125 0 1125 -1125 0 -1125 0 0
-1125z m1455 677 c165 -36 242 -88 300 -205 59 -121 70 -189 69 -457 0 -357
-33 -493 -145 -594 -100 -90 -240 -120 -554 -120 -314 0 -454 30 -554 120
-112 101 -145 237 -145 594 -1 268 10 336 69 457 67 136 171 193 408 223 119
15 448 4 552 -18z"/>
<path d="M750 1531 l0 -41 58 0 57 0 0 -365 0 -365 -57 0 -58 0 0 -40 0 -40
65 0 c49 0 65 3 65 14 0 52 117 321 143 332 21 8 167 -63 167 -82 0 -12 -6
-14 -29 -9 -37 8 -61 -15 -61 -59 0 -19 -9 -43 -20 -56 -11 -13 -20 -29 -20
-37 0 -8 -9 -31 -20 -53 -11 -22 -20 -42 -20 -45 0 -12 239 -4 286 10 192 57
253 287 109 413 -20 18 -40 32 -46 32 -6 0 8 21 30 46 53 60 67 111 51 182
-16 72 -63 130 -135 167 l-58 30 -254 3 -253 3 0 -40z m532 -88 c36 -81 29
-137 -38 -298 -31 -77 -61 -144 -66 -149 -5 -6 -35 3 -78 24 l-70 34 113 218
c61 120 113 218 115 218 2 0 13 -21 24 -47z"/>
</g>
</svg>
