<?xml version="1.0" standalone="no"?>
<!DOCTYPE svg PUBLIC "-//W3C//DTD SVG 20010904//EN"
 "http://www.w3.org/TR/2001/REC-SVG-20010904/DTD/svg10.dtd">
<svg version="1.0" xmlns="http://www.w3.org/2000/svg"
 width="700.000000pt" height="480.000000pt" viewBox="0 0 700.000000 480.000000"
 preserveAspectRatio="xMidYMid meet">

<g transform="translate(0.000000,480.000000) scale(0.100000,-0.100000)"
fill="#000000" stroke="none">
<path d="M3909 4458 c-9 -7 -74 -85 -145 -173 -70 -88 -220 -275 -333 -415
-113 -140 -228 -283 -255 -318 l-50 -62 -186 2 -185 3 -5 285 c-3 157 -7 286
-8 288 -1 1 -102 1 -224 0 l-223 -3 -5 -285 c-3 -157 -7 -286 -8 -287 -1 -2
-167 -4 -369 -5 l-368 -3 -3 -179 c-2 -137 1 -181 10 -188 7 -4 422 -8 921 -8
l909 0 26 28 c15 15 50 61 79 102 28 41 98 139 155 217 57 77 159 219 228 313
69 95 160 220 202 279 215 295 296 411 290 414 -4 2 -104 5 -222 6 -165 2
-219 -1 -231 -11z"/>
<path d="M4546 4440 c-21 -22 -182 -241 -261 -354 -16 -24 -91 -126 -165 -226
-194 -264 -226 -306 -438 -598 l-192 -263 177 -210 c98 -116 192 -228 208
-249 17 -21 79 -96 140 -166 155 -183 260 -307 415 -493 l134 -161 263 0 c145
0 263 3 263 6 0 6 -49 72 -181 244 -36 47 -112 146 -169 220 -57 74 -117 153
-134 175 -17 22 -41 52 -54 67 -13 14 -21 31 -18 37 5 7 84 11 241 11 129 0
235 3 237 8 2 4 1 96 -2 205 l-5 199 -428 -1 -427 -1 -45 47 c-25 27 -45 54
-45 61 0 7 64 106 143 220 79 114 177 257 219 317 75 110 281 409 387 560 31
44 76 110 101 146 25 36 69 100 98 142 29 42 49 77 45 78 -4 0 -115 1 -246 2
l-238 2 -23 -25z"/>
<path d="M4680 3350 c-49 -9 -75 -25 -105 -65 -53 -68 -42 -158 25 -219 54
-49 114 -57 178 -24 64 33 94 85 89 155 -7 100 -92 170 -187 153z m93 -52 c48
-25 71 -114 44 -167 -19 -38 -32 -35 -52 9 -14 31 -16 43 -7 52 15 15 15 51 0
66 -7 7 -36 12 -65 12 l-53 0 0 -80 c0 -64 3 -80 15 -80 9 0 15 9 15 24 0 42
21 41 61 -3 22 -23 39 -46 39 -51 0 -13 -63 -23 -98 -15 -45 9 -84 56 -89 107
-11 108 94 178 190 126z m-38 -78 c0 -18 -43 -26 -57 -12 -16 16 2 33 30 30
16 -2 27 -9 27 -18z"/>
<path d="M1544 2979 c-12 -20 -6 -309 6 -325 10 -11 76 -14 374 -16 l361 -3 3
-283 2 -282 228 2 227 3 3 283 2 282 169 0 169 0 55 -62 c75 -86 281 -327 407
-478 58 -69 113 -134 123 -145 10 -11 60 -68 110 -127 l92 -108 262 0 c145 0
263 3 263 7 0 6 -172 220 -301 373 -39 47 -106 126 -148 176 -42 50 -192 231
-335 402 l-258 312 -904 0 c-656 0 -905 -3 -910 -11z"/>
<path d="M3749 1424 c-7 -9 -58 -48 -114 -87 -55 -39 -104 -74 -109 -79 -6 -4
10 -36 37 -76 26 -38 47 -72 47 -77 0 -4 -17 -35 -37 -69 -39 -64 -57 -93
-223 -351 -57 -88 -121 -188 -143 -223 l-39 -62 42 -65 c23 -36 45 -65 49 -65
3 0 26 34 49 75 121 208 383 606 396 602 15 -5 205 -325 376 -634 13 -24 27
-43 31 -43 5 0 23 13 41 28 43 37 174 132 182 132 4 0 2 -8 -3 -18 -9 -17 3
-45 44 -100 1 -1 182 -3 401 -3 l399 0 27 48 c46 81 61 77 -231 69 -143 -3
-262 -3 -264 1 -9 15 342 621 470 813 l43 64 -24 41 -24 40 -369 -1 -368 -1
-22 -44 c-38 -75 -50 -71 207 -68 127 2 230 0 230 -4 0 -25 -430 -735 -475
-785 -9 -10 -23 5 -65 70 -126 195 -325 516 -425 688 -59 102 -111 189 -115
193 -4 4 -13 0 -21 -9z"/>
<path d="M1663 1399 c-194 -19 -362 -127 -446 -286 -74 -141 -84 -307 -28
-468 50 -148 128 -239 255 -301 93 -45 161 -57 281 -51 159 8 268 54 382 160
121 113 169 241 160 427 -7 159 -54 276 -152 376 -114 116 -260 163 -452 143z
m29 -120 c94 -48 180 -159 224 -289 15 -44 19 -85 19 -205 0 -134 -2 -156 -24
-208 -26 -65 -98 -160 -124 -165 -54 -11 -199 116 -243 213 -77 168 -84 395
-16 539 28 60 91 136 113 136 5 0 28 -9 51 -21z"/>
<path d="M2479 1384 c-13 -14 -61 -53 -107 -87 -48 -36 -85 -71 -89 -85 -6
-26 -6 -26 107 -163 47 -57 115 -143 153 -193 l67 -89 0 -131 c0 -72 -5 -169
-10 -216 -8 -68 -7 -87 4 -98 10 -11 50 -14 172 -13 87 1 159 3 160 4 1 1 -5
45 -12 97 -8 52 -16 165 -20 250 l-6 155 156 228 c86 125 156 233 156 238 0
18 -83 130 -93 126 -6 -2 -72 -100 -147 -218 -75 -118 -142 -214 -150 -214
-15 0 -144 184 -232 333 -34 56 -67 102 -73 102 -6 0 -22 -12 -36 -26z"/>
<path d="M563 1390 c-213 -39 -376 -186 -428 -387 -19 -72 -19 -248 0 -327 34
-143 125 -257 255 -319 101 -48 200 -64 370 -59 l65 2 69 114 c38 63 103 159
143 213 41 54 77 103 79 109 3 6 -41 56 -98 113 l-102 102 -98 -103 c-54 -56
-98 -103 -98 -104 0 -1 36 -50 80 -108 44 -59 80 -112 80 -118 0 -8 -27 -9
-89 -5 -241 15 -383 184 -369 437 8 143 58 229 161 279 75 37 161 47 267 33
41 -6 76 -9 79 -6 7 7 -41 102 -61 120 -14 13 -43 18 -135 20 -65 2 -141 -1
-170 -6z"/>
<path d="M6625 1387 c-133 -45 -204 -120 -250 -267 -14 -43 -19 -110 -24 -310
-7 -266 -13 -302 -59 -354 -43 -49 -174 -75 -202 -41 -11 14 -42 16 -204 13
l-191 -3 -5 220 c-3 121 -3 222 -1 225 2 3 44 -38 95 -91 l91 -96 107 85 106
85 -61 72 c-34 39 -74 86 -88 105 l-26 34 -108 -82 c-60 -44 -112 -79 -117
-76 -5 3 -6 18 -4 32 2 15 5 96 5 180 l1 152 175 0 175 0 25 50 c14 27 25 53
25 57 0 4 -148 8 -330 8 -324 0 -330 0 -351 -22 -21 -21 -21 -23 -21 -518 0
-473 0 -498 18 -516 18 -17 46 -18 504 -21 483 -3 485 -3 533 19 70 32 125 79
163 139 50 78 64 152 64 344 0 278 25 395 93 444 22 16 48 22 108 25 70 3 79
5 74 20 -4 9 -9 24 -12 33 -14 48 -217 85 -308 55z"/>
<path d="M3587 606 c-53 -58 -97 -107 -97 -111 0 -3 17 -20 38 -38 20 -17 63
-56 94 -85 31 -30 62 -52 67 -51 6 2 53 41 105 87 l95 83 -96 110 c-54 60
-100 109 -103 109 -3 0 -50 -47 -103 -104z"/>
</g>
</svg>
