<?xml version="1.0" encoding="UTF-8"?>
<svg version="1.1" xmlns="http://www.w3.org/2000/svg" width="300" height="120">
<path d="M0 0 C0.79870614 -0.00297112 1.59741228 -0.00594224 2.42032164 -0.0090034 C5.10563897 -0.01769823 7.79091176 -0.01919931 10.47624207 -0.02069092 C12.39796036 -0.02531853 14.31967774 -0.03034311 16.24139404 -0.03573608 C21.46872493 -0.04886737 26.69604296 -0.05530643 31.92338777 -0.05974674 C35.18804933 -0.06267622 38.45270738 -0.06678078 41.71736717 -0.07125092 C51.92836072 -0.0849276 62.13934622 -0.09459349 72.35034829 -0.09845281 C84.14376445 -0.1029345 95.93706476 -0.12048686 107.73044568 -0.1494534 C116.84220423 -0.17105781 125.95393016 -0.18115642 135.06571406 -0.18249393 C140.50972391 -0.18354282 145.95362488 -0.18946859 151.3976078 -0.20731354 C156.51854465 -0.22377279 161.63929053 -0.22596013 166.76024437 -0.21717453 C168.63958624 -0.21640301 170.51893829 -0.22076194 172.39825439 -0.23063278 C174.96454289 -0.24332114 177.53015186 -0.23749255 180.09643555 -0.22705078 C180.839538 -0.23510719 181.58264046 -0.24316359 182.34826118 -0.25146413 C188.03955108 -0.19733241 192.17959511 1.08134377 196.23869324 5.14044189 C196.23869324 6.46044189 196.23869324 7.78044189 196.23869324 9.14044189 C193.41376395 8.73688057 192.43727311 8.38354334 190.59192753 6.12447166 C187.32954493 3.37393203 184.4119741 3.58999179 180.33694458 3.64596558 C179.13442868 3.63872233 179.13442868 3.63872233 177.90761954 3.63133276 C175.21808661 3.62005011 172.52950201 3.63738934 169.8400116 3.65460205 C167.91327659 3.65245649 165.98654285 3.64857924 164.05981445 3.64309692 C158.82435249 3.63339313 153.58923088 3.64871939 148.35381007 3.66900301 C142.88059158 3.68655158 137.40738395 3.68304937 131.93414307 3.68228149 C122.74320265 3.68415525 113.55239421 3.7015302 104.36149597 3.7288208 C93.72664536 3.76028172 83.09193928 3.77081671 72.4570455 3.76934969 C62.23642461 3.7681301 52.01585093 3.77833157 41.79524422 3.79493332 C37.44083348 3.80200478 33.08643944 3.80566064 28.73202324 3.80672073 C23.60780335 3.80872603 18.48370537 3.82090631 13.35952568 3.84105301 C11.47571051 3.84690721 9.59188131 3.8493529 7.7080574 3.84819794 C5.14306033 3.84722024 2.57840749 3.85849089 0.01345825 3.87301636 C-0.73770061 3.86991915 -1.48885947 3.86682195 -2.26278073 3.86363089 C-5.97997228 3.89856233 -7.58428912 4.02243014 -10.76130676 6.14044189 C-11.09130676 7.13044189 -11.42130676 8.12044189 -11.76130676 9.14044189 C-13.08130676 8.81044189 -14.40130676 8.48044189 -15.76130676 8.14044189 C-15.38249598 5.39406373 -14.9829839 4.33995131 -12.88630676 2.45294189 C-8.68559534 -0.14161516 -4.77089135 -0.00551337 0 0 Z " fill="#FFFFFF" transform="translate(59.76130676269531,88.85955810546875)"/>
<path d="M0 0 C1.32 0 2.64 0 4 0 C4.268125 0.639375 4.53625 1.27875 4.8125 1.9375 C5.88667752 4.33131686 5.88667752 4.33131686 9 5 C11.575297 5.09778552 14.123449 5.13907781 16.69883728 5.13371277 C17.49078745 5.13597833 18.28273762 5.13824388 19.09868628 5.14057809 C21.76103666 5.14692473 24.42333623 5.1460883 27.08569336 5.14526367 C28.99095221 5.14825473 30.89621045 5.15165713 32.8014679 5.15544128 C37.98321498 5.16429042 43.16494557 5.16661977 48.34669948 5.16725707 C52.66846058 5.16820544 56.99021782 5.17188287 61.31197745 5.17542917 C71.50543161 5.18357702 81.69887694 5.18601308 91.89233398 5.18530273 C102.41750025 5.18470168 112.94261531 5.19525824 123.46776861 5.2110464 C132.49626944 5.22410834 141.52475351 5.22948721 150.55326372 5.22884732 C155.94911629 5.22859196 161.34492335 5.23146422 166.74076653 5.24202538 C171.81406286 5.25168385 176.88726997 5.25180104 181.96056938 5.24450874 C183.82462188 5.24346013 185.68867988 5.24584211 187.55272293 5.2518692 C190.09331428 5.25955302 192.63359473 5.2549684 195.17417908 5.24723816 C195.91532532 5.25238172 196.65647157 5.25752529 197.42007679 5.26282471 C202.53616507 5.23097821 202.53616507 5.23097821 207 3 C207.33 2.01 207.66 1.02 208 0 C209.32 0 210.64 0 212 0 C211.67522284 3.00418869 211.42029035 4.57970965 209.25 6.75 C204.52101768 9.3772124 199.4407089 9.14495705 194.1567688 9.13371277 C193.37339358 9.13597833 192.59001837 9.13824388 191.78290451 9.14057809 C189.16140697 9.14690153 186.53996135 9.14608979 183.91845703 9.14526367 C182.03747491 9.14825618 180.1564934 9.15165893 178.2755127 9.15544128 C173.16806036 9.16427582 168.06062477 9.16661916 162.95316553 9.16725707 C158.68874938 9.16820686 154.42433713 9.17188593 150.15992248 9.17542917 C140.09863772 9.18357155 130.0373619 9.18601359 119.97607422 9.18530273 C109.59861528 9.18470189 99.22120831 9.19525557 88.84376252 9.2110464 C79.93237092 9.22412302 71.0209963 9.22948658 62.10959518 9.22884732 C56.78801196 9.22859239 51.46647494 9.23144137 46.14490128 9.24202538 C41.13969314 9.25170844 36.13457534 9.25178407 31.12936401 9.24450874 C29.29398339 9.24346319 27.45859713 9.24582408 25.62322617 9.2518692 C23.11444425 9.25959615 20.60597378 9.2549397 18.09719849 9.24723816 C17.3739369 9.25238172 16.65067532 9.25752529 15.90549672 9.26282471 C10.5610954 9.2266631 4.99236325 8.99236325 1.0625 5.0625 C0 3 0 3 0 0 Z " fill="#FFFFFF" transform="translate(44,41)"/>
<path d="M0 0 C4.25414623 -0.02465622 8.50825498 -0.04283899 12.76245117 -0.05493164 C14.21070073 -0.05997101 15.65894517 -0.06680253 17.10717773 -0.07543945 C19.18474588 -0.08752247 21.26224697 -0.09323211 23.33984375 -0.09765625 C24.59144287 -0.10289307 25.84304199 -0.10812988 27.13256836 -0.11352539 C30 0 30 0 31 1 C31 0.67 31 0.34 31 0 C36.94 0 42.88 0 49 0 C49 1.32 49 2.64 49 4 C47.68 4 46.36 4 45 4 C45 7.63 45 11.26 45 15 C46.32 15 47.64 15 49 15 C49 16.65 49 18.3 49 20 C43.06 20 37.12 20 31 20 C31.33 18.35 31.66 16.7 32 15 C33.32 15 34.64 15 36 15 C35.67 11.7 35.34 8.4 35 5 C33.68 4.67 32.36 4.34 31 4 C30.67 5.65 30.34 7.3 30 9 C28.02 9 26.04 9 24 9 C23.67 7.68 23.34 6.36 23 5 C22.34 5 21.68 5 21 5 C20.67 8.3 20.34 11.6 20 15 C21.32 15 22.64 15 24 15 C24 16.65 24 18.3 24 20 C18.06 20 12.12 20 6 20 C6 18.35 6 16.7 6 15 C7.65 15 9.3 15 11 15 C10.67 11.7 10.34 8.4 10 5 C9.01 5.495 9.01 5.495 8 6 C7.67 6.99 7.34 7.98 7 9 C4.69 9 2.38 9 0 9 C0 6.03 0 3.06 0 0 Z " fill="#FFFFFF" transform="translate(90,59)"/>
<path d="M0 0 C0.84676067 3.73201925 0.95929637 6.26940301 0 10 C-0.99 10 -1.98 10 -3 10 C-3 9.34 -3 8.68 -3 8 C-5.475 7.01 -5.475 7.01 -8 6 C-9.33430797 11.07117299 -9.33430797 11.07117299 -8.046875 15.9375 C-6.44862409 17.83432526 -5.25340827 18.94483264 -3 20 C0.21426429 19.89564077 2.99410133 19.10884262 6 18 C3.58981711 21.61527434 2.30736474 21.84319572 -1.75 23.125 C-2.77609375 23.45757812 -3.8021875 23.79015625 -4.859375 24.1328125 C-19.07927367 28.05920243 -38.2296755 28.10669382 -51.3125 20.8125 C-52.199375 20.214375 -53.08625 19.61625 -54 19 C-50.23375329 17.74458443 -48.62811066 18.62938042 -45 20 C-41.535 16.535 -41.535 16.535 -38 13 C-38.66 11.02 -39.32 9.04 -40 7 C-41.65 7.33 -43.3 7.66 -45 8 C-45 8.66 -45 9.32 -45 10 C-46.32 9.67 -47.64 9.34 -49 9 C-49 6.36 -49 3.72 -49 1 C-42.67872943 -2.16063529 -33.46464219 0.01087933 -27 2 C-26.67 3.32 -26.34 4.64 -26 6 C-23.2102748 5.60146783 -22.14896513 5.15923859 -20.1875 3.0625 C-14.43921784 -2.35730889 -7.20668403 -0.9643664 0 0 Z M-41 19 C-41 19.66 -41 20.32 -41 21 C-41.99 21.495 -41.99 21.495 -43 22 C-30.95891981 26.40527324 -18.35141976 25.77226255 -6 23 C-6 22.01 -6 21.02 -6 20 C-13.16417188 13.43284244 -19.29103837 13.41090921 -28.6015625 13.60546875 C-33.94275867 13.91495652 -37.03142071 15.37651456 -41 19 Z " fill="#FFFFFF" transform="translate(174,18)"/>
<path d="M0 0 C4.2290362 -0.08725659 8.45784012 -0.1404789 12.6875 -0.1875 C13.88568359 -0.21263672 15.08386719 -0.23777344 16.31835938 -0.26367188 C17.47529297 -0.27333984 18.63222656 -0.28300781 19.82421875 -0.29296875 C20.88729248 -0.3086792 21.95036621 -0.32438965 23.0456543 -0.34057617 C26.38703212 0.04461696 28.26958732 1.08628311 31 3 C30.6875 5.375 30.6875 5.375 30 8 C29.01 8.66 28.02 9.32 27 10 C28.74934898 12.08333079 28.74934898 12.08333079 31 14 C32.32 14 33.64 14 35 14 C33.25 18.875 33.25 18.875 31 20 C23.69565217 20.46376812 23.69565217 20.46376812 21.125 18.75 C20 17 20 17 19.125 14.875 C18.11631339 12.70995268 18.11631339 12.70995268 15.375 12.25 C14.59125 12.1675 13.8075 12.085 13 12 C13 12.99 13 13.98 13 15 C14.65 15 16.3 15 18 15 C18 16.65 18 18.3 18 20 C12.06 20 6.12 20 0 20 C0 18.35 0 16.7 0 15 C1.32 15 2.64 15 4 15 C4 11.37 4 7.74 4 4 C2.68 4 1.36 4 0 4 C0 2.68 0 1.36 0 0 Z M13 4 C13 5.32 13 6.64 13 8 C17.14093698 8.20970559 17.14093698 8.20970559 21 7 C20.67 6.01 20.34 5.02 20 4 C17.69 4 15.38 4 13 4 Z " fill="#FFFFFF" transform="translate(172,59)"/>
<path d="M0 0 C4.24994263 -0.05805933 8.49978324 -0.09361654 12.75 -0.125 C13.9565625 -0.14175781 15.163125 -0.15851562 16.40625 -0.17578125 C17.56640625 -0.18222656 18.7265625 -0.18867187 19.921875 -0.1953125 C20.99018555 -0.20578613 22.05849609 -0.21625977 23.15917969 -0.22705078 C26.00802127 0.00064109 27.63133887 0.43536084 30 2 C30.9375 3.9375 30.9375 3.9375 31 6 C29.6875 7.75 29.6875 7.75 28 9 C27.34 9 26.68 9 26 9 C26 9.66 26 10.32 26 11 C26.99 11.33 27.98 11.66 29 12 C29.33 12.66 29.66 13.32 30 14 C31.32 13.67 32.64 13.34 34 13 C33.625 15.9375 33.625 15.9375 33 19 C29.80455776 20.59772112 26.46830418 20.50722235 23 20 C20.5 18.1875 20.5 18.1875 19 16 C19 15.01 19 14.02 19 13 C16.03 12.505 16.03 12.505 13 12 C13 12.99 13 13.98 13 15 C14.32 15 15.64 15 17 15 C17 16.65 17 18.3 17 20 C11.39 20 5.78 20 0 20 C0 18.35 0 16.7 0 15 C1.32 15 2.64 15 4 15 C4 11.37 4 7.74 4 4 C2.68 4 1.36 4 0 4 C0 2.68 0 1.36 0 0 Z M13 4 C13 5.32 13 6.64 13 8 C17.14093698 8.20970559 17.14093698 8.20970559 21 7 C20.67 6.01 20.34 5.02 20 4 C17.69 4 15.38 4 13 4 Z " fill="#FFFFFF" transform="translate(208,59)"/>
<path d="M0 0 C10.23 0 20.46 0 31 0 C31 2.97 31 5.94 31 9 C28.25 9.25 28.25 9.25 25 9 C23.66666667 7.66666667 22.33333333 6.33333333 21 5 C17.35278304 4.19234122 17.35278304 4.19234122 14 4 C14 4.99 14 5.98 14 7 C15.65 7 17.3 7 19 7 C19.33 8.65 19.66 10.3 20 12 C18.02 12 16.04 12 14 12 C14 12.99 14 13.98 14 15 C15.27875 14.896875 16.5575 14.79375 17.875 14.6875 C18.59429687 14.62949219 19.31359375 14.57148437 20.0546875 14.51171875 C22.39519216 14.12606964 22.39519216 14.12606964 24 11 C27.625 10.8125 27.625 10.8125 31 11 C31 13.97 31 16.94 31 20 C20.77 20 10.54 20 0 20 C0 18.35 0 16.7 0 15 C1.65 15 3.3 15 5 15 C4.67 11.7 4.34 8.4 4 5 C2.68 4.67 1.36 4.34 0 4 C0 2.68 0 1.36 0 0 Z " fill="#FFFFFF" transform="translate(140,59)"/>
<path d="M0 0 C10.23 0 20.46 0 31 0 C31 2.64 31 5.28 31 8 C28.6875 8.6875 28.6875 8.6875 26 9 C25.54625 8.5359375 25.0925 8.071875 24.625 7.59375 C22.58691512 5.59485906 21.09155886 5.3360908 18.3125 4.8125 C17.50425781 4.65394531 16.69601562 4.49539062 15.86328125 4.33203125 C15.24839844 4.22246094 14.63351562 4.11289062 14 4 C14 4.99 14 5.98 14 7 C15.65 7 17.3 7 19 7 C19.33 8.65 19.66 10.3 20 12 C18.02 12 16.04 12 14 12 C14 12.99 14 13.98 14 15 C15.27875 14.896875 16.5575 14.79375 17.875 14.6875 C18.59429687 14.62949219 19.31359375 14.57148437 20.0546875 14.51171875 C22.39519216 14.12606964 22.39519216 14.12606964 24 11 C27.625 10.8125 27.625 10.8125 31 11 C31 13.97 31 16.94 31 20 C20.77 20 10.54 20 0 20 C0 18.35 0 16.7 0 15 C1.65 15 3.3 15 5 15 C4.67 11.7 4.34 8.4 4 5 C2.68 4.67 1.36 4.34 0 4 C0 2.68 0 1.36 0 0 Z " fill="#FFFFFF" transform="translate(243,59)"/>
<path d="M0 0 C1.02222656 0.01804688 2.04445313 0.03609375 3.09765625 0.0546875 C5.60774749 0.10160509 8.11587764 0.16723271 10.625 0.25 C10.625 2.89 10.625 5.53 10.625 8.25 C11.945 8.58 13.265 8.91 14.625 9.25 C14.295 10.9 13.965 12.55 13.625 14.25 C12.635 13.92 11.645 13.59 10.625 13.25 C10.625 15.56 10.625 17.87 10.625 20.25 C7.45865364 20.36760715 4.29287926 20.43771024 1.125 20.5 C-0.2053125 20.55027344 -0.2053125 20.55027344 -1.5625 20.6015625 C-7.73004376 20.69226167 -12.21616745 19.72438103 -17.375 16.25 C-19.805466 13.819534 -20.13771993 12.6510144 -20.375 9.25 C-16.4514344 -0.21271703 -8.97929227 -0.30124077 0 0 Z M-9.375 6.25 C-9.79166667 9.75 -9.79166667 9.75 -9.375 13.25 C-7.41866025 15.66121859 -7.41866025 15.66121859 -3.75 15.375 C-2.63625 15.33375 -1.5225 15.2925 -0.375 15.25 C-0.705 14.59 -1.035 13.93 -1.375 13.25 C-2.035 13.25 -2.695 13.25 -3.375 13.25 C-3.705 11.93 -4.035 10.61 -4.375 9.25 C-1.735 9.58 0.905 9.91 3.625 10.25 C3.43028889 8.30000871 3.43028889 8.30000871 2.625 6.25 C-1.55877807 3.26158709 -5.20861725 3.4724115 -9.375 6.25 Z " fill="#FFFFFF" transform="translate(45.375,58.75)"/>
<path d="M0 0 C10.56 0 21.12 0 32 0 C32 1.32 32 2.64 32 4 C31.01 4.33 30.02 4.66 29 5 C28.96261719 5.75925781 28.92523438 6.51851563 28.88671875 7.30078125 C28.82097656 8.29464844 28.75523438 9.28851563 28.6875 10.3125 C28.62949219 11.29863281 28.57148437 12.28476563 28.51171875 13.30078125 C27.94438186 16.29337508 27.42190905 17.2223993 25 19 C19.43183863 20.85605379 13.86840225 20.7539167 8.4375 18.5625 C6 17 6 17 5 16 C4.92755947 13.98035801 4.91622812 11.95832876 4.9375 9.9375 C4.94652344 8.83277344 4.95554687 7.72804688 4.96484375 6.58984375 C4.97644531 5.73519531 4.98804688 4.88054688 5 4 C3.35 4 1.7 4 0 4 C0 2.68 0 1.36 0 0 Z M13 4 C12.91909029 5.62418745 12.86085005 7.24951745 12.8125 8.875 C12.77769531 9.77992187 12.74289063 10.68484375 12.70703125 11.6171875 C12.80371094 12.40351562 12.90039062 13.18984375 13 14 C15.75556583 16.26646351 15.75556583 16.26646351 18.5625 15.875 C21.05510647 15.20963488 21.05510647 15.20963488 22.375 13.375 C23.24717908 10.06071949 22.64016848 7.32887611 22 4 C19.03 4 16.06 4 13 4 Z " fill="#FFFFFF" transform="translate(57,59)"/>
<path d="M0 0 C0.20086443 3.71599191 0.1519437 4.77208445 -2 8 C-1.01 8 -0.02 8 1 8 C2.125 12.75 2.125 12.75 1 15 C1.99 15 2.98 15 4 15 C4.66 16.98 5.32 18.96 6 21 C4.4375 22.5625 4.4375 22.5625 2 24 C-1.75 23.6875 -1.75 23.6875 -5 23 C-5.66 21.35 -6.32 19.7 -7 18 C-6.34 18 -5.68 18 -5 18 C-5 17.34 -5 16.68 -5 16 C-5.61875 15.938125 -6.2375 15.87625 -6.875 15.8125 C-9 15 -9 15 -10.25 12.4375 C-10.4975 11.633125 -10.745 10.82875 -11 10 C-10.34 9.67 -9.68 9.34 -9 9 C-8.34 9.33 -7.68 9.66 -7 10 C-7 9.34 -7 8.68 -7 8 C-8.32 7.67 -9.64 7.34 -11 7 C-11.33 5.02 -11.66 3.04 -12 1 C-9.525 1.495 -9.525 1.495 -7 2 C-7 2.66 -7 3.32 -7 4 C-6.34 4 -5.68 4 -5 4 C-5 3.01 -5 2.02 -5 1 C-3 0 -3 0 0 0 Z M-4 9 C-3 12 -3 12 -3 12 Z " fill="#FFFFFF" transform="translate(12,68)"/>
<path d="M0 0 C2 0.3125 2 0.3125 4 1 C4.33 1.66 4.66 2.32 5 3 C5.33 2.67 5.66 2.34 6 2 C7.99958364 1.95919217 10.00045254 1.95745644 12 2 C10.1875 4.5 10.1875 4.5 8 7 C7.01 7 6.02 7 5 7 C5 7.66 5 8.32 5 9 C5.66 9 6.32 9 7 9 C6.3125 11.4375 6.3125 11.4375 5 14 C2.375 14.8125 2.375 14.8125 0 15 C0 15.66 0 16.32 0 17 C1.65 16.67 3.3 16.34 5 16 C4.25 18.9375 4.25 18.9375 3 22 C1 22.9375 1 22.9375 -1 23 C-1.66 22.67 -2.32 22.34 -3 22 C-3 22.66 -3 23.32 -3 24 C-4.32 23.67 -5.64 23.34 -7 23 C-8.125 18.25 -8.125 18.25 -7 16 C-5.68 16.33 -4.36 16.66 -3 17 C-3 16.34 -3 15.68 -3 15 C-3.99 14.67 -4.98 14.34 -6 14 C-5.67 12.02 -5.34 10.04 -5 8 C-3.35 8.33 -1.7 8.66 0 9 C-0.66 8.01 -1.32 7.02 -2 6 C-1.45945946 1.45945946 -1.45945946 1.45945946 0 0 Z M-1 10 C0 12 0 12 0 12 Z " fill="#FFFFFF" transform="translate(8,44)"/>
<path d="M0 0 C3.875 0.875 3.875 0.875 5 2 C5.04063832 3.66617115 5.042721 5.33388095 5 7 C4.34 7 3.68 7 3 7 C3 7.66 3 8.32 3 9 C4.65 8.67 6.3 8.34 8 8 C8.33 9.98 8.66 11.96 9 14 C7.02 14.99 7.02 14.99 5 16 C5 15.34 5 14.68 5 14 C3.02 14.33 1.04 14.66 -1 15 C-1.99 13.35 -2.98 11.7 -4 10 C-3.34 9.67 -2.68 9.34 -2 9 C-2 8.34 -2 7.68 -2 7 C-2.598125 6.9175 -3.19625 6.835 -3.8125 6.75 C-6.5966296 5.79544128 -7.43311142 4.42867729 -9 2 C-6.33333333 2 -3.66666667 2 -1 2 C-0.67 1.34 -0.34 0.68 0 0 Z " fill="#FFFFFF" transform="translate(289,44)"/>
<path d="M0 0 C0.350625 0.474375 0.70125 0.94875 1.0625 1.4375 C3.84163543 3.67873825 6.5144717 3.67117658 10 4 C8.625 5.5 8.625 5.5 7 7 C6.34 7 5.68 7 5 7 C5.33 8.65 5.66 10.3 6 12 C4.948125 11.814375 3.89625 11.62875 2.8125 11.4375 C-0.57119882 11.04920669 -2.76425888 11.11752515 -6 12 C-5.67 10.35 -5.34 8.7 -5 7 C-7.475 6.01 -7.475 6.01 -10 5 C-10 4.67 -10 4.34 -10 4 C-8.906875 3.896875 -7.81375 3.79375 -6.6875 3.6875 C-3.14440371 3.02692273 -2.06756277 2.7972908 0 0 Z " fill="#FFFFFF" transform="translate(150,0)"/>
<path d="M0 0 C4.29 0 8.58 0 13 0 C13.66 2.31 14.32 4.62 15 7 C13 9 13 9 9.9609375 9.1953125 C8.77757813 9.17210938 7.59421875 9.14890625 6.375 9.125 C5.18648438 9.10695313 3.99796875 9.08890625 2.7734375 9.0703125 C1.85820313 9.04710938 0.94296875 9.02390625 0 9 C0 8.34 0 7.68 0 7 C0.66 6.67 1.32 6.34 2 6 C2 5.01 2 4.02 2 3 C1.34 2.67 0.68 2.34 0 2 C0 1.34 0 0.68 0 0 Z " fill="#FFFFFF" transform="translate(101,98)"/>
<path d="M0 0 C1.37478516 0.01740234 1.37478516 0.01740234 2.77734375 0.03515625 C3.69644531 0.04417969 4.61554688 0.05320312 5.5625 0.0625 C6.27277344 0.07410156 6.98304688 0.08570312 7.71484375 0.09765625 C8.33984375 3.47265625 8.33984375 3.47265625 8.71484375 7.09765625 C6.71484375 9.09765625 6.71484375 9.09765625 4.33203125 9.29296875 C3.42710937 9.26976563 2.5221875 9.2465625 1.58984375 9.22265625 C0.22472656 9.19558594 0.22472656 9.19558594 -1.16796875 9.16796875 C-1.86664063 9.14476563 -2.5653125 9.1215625 -3.28515625 9.09765625 C-3.3828125 2.9453125 -3.3828125 2.9453125 -3.28515625 1.09765625 C-2.28515625 0.09765625 -2.28515625 0.09765625 0 0 Z " fill="#FFFFFF" transform="translate(189.28515625,97.90234375)"/>
<path d="M0 0 C0.680625 -0.00515625 1.36125 -0.0103125 2.0625 -0.015625 C4 0.25 4 0.25 7 2.25 C7.375 4.75 7.375 4.75 7 7.25 C4.00261059 9.24825961 3.36652492 9.52550398 0 9.5 C-0.680625 9.50515625 -1.36125 9.5103125 -2.0625 9.515625 C-4 9.25 -4 9.25 -7 7.25 C-7.375 4.75 -7.375 4.75 -7 2.25 C-4.00261059 0.25174039 -3.36652492 -0.02550398 0 0 Z M-2 2.25 C-2.33 3.57 -2.66 4.89 -3 6.25 C-0.525 6.745 -0.525 6.745 2 7.25 C2.33 5.93 2.66 4.61 3 3.25 C1.35 2.92 -0.3 2.59 -2 2.25 Z " fill="#FFFFFF" transform="translate(151,97.75)"/>
<path d="M0 0 C2.0625 1.25 2.0625 1.25 3 3 C2.72963853 5.97397616 2.14553974 6.85446026 0 9 C-7.13669065 9.69064748 -7.13669065 9.69064748 -10.5 7 C-10.995 6.34 -11.49 5.68 -12 5 C-9.44483272 -0.65787041 -5.92487297 -0.67712834 0 0 Z M-7 2 C-6.67 3.65 -6.34 5.3 -6 7 C-4.68 7 -3.36 7 -2 7 C-1.67 6.01 -1.34 5.02 -1 4 C-1.33 3.34 -1.66 2.68 -2 2 C-3.65 2 -5.3 2 -7 2 Z " fill="#FFFFFF" transform="translate(134,98)"/>
<path d="M0 0 C4.62 0 9.24 0 14 0 C14 1.32 14 2.64 14 4 C12.35 3.67 10.7 3.34 9 3 C9 4.32 9 5.64 9 7 C9.66 7 10.32 7 11 7 C11 7.66 11 8.32 11 9 C8.36 9 5.72 9 3 9 C3 8.34 3 7.68 3 7 C3.66 7 4.32 7 5 7 C5 5.68 5 4.36 5 3 C3.35 3.33 1.7 3.66 0 4 C0 2.68 0 1.36 0 0 Z " fill="#FFFFFF" transform="translate(165,98)"/>
<path d="M0 0 C1.24394531 0.09667969 2.48789063 0.19335938 3.76953125 0.29296875 C5.69732422 0.46119141 5.69732422 0.46119141 7.6640625 0.6328125 C8.97246094 0.73722656 10.28085938 0.84164062 11.62890625 0.94921875 C14.85001202 1.20784768 18.06976259 1.47773531 21.2890625 1.7578125 C21.2890625 2.0878125 21.2890625 2.4178125 21.2890625 2.7578125 C13.55818825 3.44391227 5.86115381 3.87852742 -1.8984375 3.9453125 C-2.99369751 3.96464844 -2.99369751 3.96464844 -4.11108398 3.984375 C-7.86780115 3.99142904 -9.50430199 3.89556951 -12.7109375 1.7578125 C-8.1947956 -0.01873604 -4.82220946 -0.39816408 0 0 Z " fill="#FFFFFF" transform="translate(178.7109375,113.2421875)"/>
<path d="M0 0 C-3.70891691 2.47261127 -6.52728326 2.26315207 -10.8125 2.1875 C-11.93579712 2.17783203 -11.93579712 2.17783203 -13.08178711 2.16796875 C-20.07771983 2.07327917 -27.03081974 1.61850094 -34 1 C-34 0.67 -34 0.34 -34 0 C-29.64747019 -0.39588855 -25.29296679 -0.76297557 -20.9375 -1.125 C-19.09381836 -1.29322266 -19.09381836 -1.29322266 -17.21289062 -1.46484375 C-10.97882868 -1.96894579 -5.85716062 -2.3498267 0 0 Z " fill="#FFFFFF" transform="translate(134,115)"/>
<path d="M0 0 C3.73487777 0.4979837 5.81237635 0.87491756 9 3 C9.6875 5.625 9.6875 5.625 10 8 C7.40899174 9.29550413 5.80575631 8.96400816 2.9375 8.6875 C1.58978516 8.56955078 1.58978516 8.56955078 0.21484375 8.44921875 C-0.51605469 8.30097656 -1.24695312 8.15273437 -2 8 C-2.33 7.34 -2.66 6.68 -3 6 C-1.68 5.34 -0.36 4.68 1 4 C0.67 2.68 0.34 1.36 0 0 Z " fill="#FFFFFF" transform="translate(52,111)"/>
<path d="M0 0 C0.66 0.33 1.32 0.66 2 1 C2 2.32 2 3.64 2 5 C4.31 5 6.62 5 9 5 C4.18421053 9.97631579 4.18421053 9.97631579 -0.125 10.0625 C-1.07375 10.041875 -2.0225 10.02125 -3 10 C-3.66 8.02 -4.32 6.04 -5 4 C-3.35 2.68 -1.7 1.36 0 0 Z " fill="#FFFFFF" transform="translate(274,96)"/>
<path d="M0 0 C4.75 0.75 4.75 0.75 7 3 C6.64644564 5.26274788 6.02455574 6.95088852 5 9 C2.3125 9.3125 2.3125 9.3125 -1 9 C-3.875 6.5 -3.875 6.5 -6 4 C-4.02 4 -2.04 4 0 4 C0 2.68 0 1.36 0 0 Z " fill="#FFFFFF" transform="translate(24,97)"/>
<path d="M0 0 C-0.33 1.32 -0.66 2.64 -1 4 C0.32 4.99 1.64 5.98 3 7 C-1.32734391 9.22923777 -4.28400182 8.92470553 -9 8 C-9 6.35 -9 4.7 -9 3 C-3.375 0 -3.375 0 0 0 Z " fill="#FFFFFF" transform="translate(248,111)"/>
<path d="M0 0 C1.98 0.99 3.96 1.98 6 3 C6 5 6 7 6 9 C2.10885099 10.01911045 0.39403493 10.16782969 -3.375 8.5625 C-4.24125 8.046875 -5.1075 7.53125 -6 7 C-6 6.34 -6 5.68 -6 5 C-4.02 5 -2.04 5 0 5 C-0.33 4.67 -0.66 4.34 -1 4 C-0.5625 1.9375 -0.5625 1.9375 0 0 Z M2 5 C3 7 3 7 3 7 Z " fill="#FFFFFF" transform="translate(33,102)"/>
<path d="M0 0 C0.66 0.33 1.32 0.66 2 1 C2 1.99 2 2.98 2 4 C1.67 4.33 1.34 4.66 1 5 C2.98 5 4.96 5 7 5 C7 5.66 7 6.32 7 7 C3.55166676 9.05257931 1.68338409 10.0632763 -2.375 9.6875 C-3.24125 9.460625 -4.1075 9.23375 -5 9 C-5.33 7.35 -5.66 5.7 -6 4 C-4.02 2.68 -2.04 1.36 0 0 Z " fill="#FFFFFF" transform="translate(266,102)"/>
<path d="M0 0 C2.5363613 1.01454452 3.79351461 1.6853556 5.3125 4 C5.6528125 4.99 5.6528125 4.99 6 6 C5.67 6.66 5.34 7.32 5 8 C-3.03501094 8.78774617 -3.03501094 8.78774617 -7.0625 5.5 C-7.701875 4.675 -8.34125 3.85 -9 3 C-3.25 2.875 -3.25 2.875 -1 4 C-0.67 2.68 -0.34 1.36 0 0 Z " fill="#FFFFFF" transform="translate(283,36)"/>
<path d="M0 0 C0.66 0.33 1.32 0.66 2 1 C2 1.99 2 2.98 2 4 C4.31 4.33 6.62 4.66 9 5 C7.36587557 6.70840281 6.13093906 7.93453047 4 9 C2.00039988 9.039992 -0.00047242 9.04346799 -2 9 C-2 8.34 -2 7.68 -2 7 C-2.99 7.33 -3.98 7.66 -5 8 C-5.33 6.68 -5.66 5.36 -6 4 C-4.02 2.68 -2.04 1.36 0 0 Z M-1 5 C0 7 0 7 0 7 Z " fill="#FFFFFF" transform="translate(34,23)"/>
<path d="M0 0 C2.31 0.66 4.62 1.32 7 2 C8.125 6.75 8.125 6.75 7 9 C2.45194365 9.17835515 -0.8794254 8.99785435 -5 7 C-3 5 -3 5 0 4 C0 2.68 0 1.36 0 0 Z M4 5 C5 7 5 7 5 7 Z " fill="#FFFFFF" transform="translate(42,107)"/>
<path d="M0 0 C2.375 0.3125 2.375 0.3125 5 1 C5.66 1.99 6.32 2.98 7 4 C7 3.34 7 2.68 7 2 C8.65 1.67 10.3 1.34 12 1 C12.125 3.375 12.125 3.375 12 6 C11.34 6.66 10.68 7.32 10 8 C8.68 8 7.36 8 6 8 C5.67 7.67 5.34 7.34 5 7 C4.34 6.835 3.68 6.67 3 6.5 C1 6 1 6 0 5 C-0.04063832 3.33382885 -0.042721 1.66611905 0 0 Z " fill="#FFFFFF" transform="translate(288,68)"/>
<path d="M0 0 C4.8 2.46153846 4.8 2.46153846 5.8125 5.1875 C5.874375 5.785625 5.93625 6.38375 6 7 C1.92809781 9.03595109 -0.60241389 9.14719638 -5 8 C-5.99 7.34 -6.98 6.68 -8 6 C-8 5.34 -8 4.68 -8 4 C-5.69 4 -3.38 4 -1 4 C-0.67 2.68 -0.34 1.36 0 0 Z " fill="#FFFFFF" transform="translate(275,29)"/>
<path d="M0 0 C0.66 0.33 1.32 0.66 2 1 C2.33 1.99 2.66 2.98 3 4 C5.31 4 7.62 4 10 4 C7.79092594 6.63389599 6.39470439 7.88242848 3.0625 8.875 C-0.2171537 9.00886342 -2.09037129 8.45481436 -5 7 C-4.60196439 4.11424181 -4.20990931 3.17810487 -1.9375 1.25 C-1.298125 0.8375 -0.65875 0.425 0 0 Z " fill="#FFFFFF" transform="translate(24,29)"/>
<path d="M0 0 C0 0.99 0 1.98 0 3 C1.98 3.66 3.96 4.32 6 5 C3.42589181 7.47114386 2.12402615 7.98892624 -1.5 8.3125 C-4.6490748 8.03133261 -6.38237988 7.67527688 -9 6 C-8.8125 4.125 -8.8125 4.125 -8 2 C-5.10888212 0.47835901 -3.28176588 0 0 0 Z M-4 4 C-3 6 -3 6 -3 6 Z " fill="#FFFFFF" transform="translate(47,19)"/>
<path d="M0 0 C0.99 0.66 1.98 1.32 3 2 C4.65549531 2.38499891 6.3222433 2.72793135 8 3 C7.505 3.61875 7.01 4.2375 6.5 4.875 C4.80777227 6.83880904 4.80777227 6.83880904 5 9 C1.7 9 -1.6 9 -5 9 C-4.67 7.68 -4.34 6.36 -4 5 C-4.99 4.67 -5.98 4.34 -7 4 C-7 3.67 -7 3.34 -7 3 C-5.5459375 2.5359375 -5.5459375 2.5359375 -4.0625 2.0625 C-1.15934208 1.30476658 -1.15934208 1.30476658 0 0 Z " fill="#FFFFFF" transform="translate(112,9)"/>
<path d="M0 0 C0.66 0 1.32 0 2 0 C2.33 0.66 2.66 1.32 3 2 C5.52733235 2.65555119 5.52733235 2.65555119 8 3 C7.67 3.66 7.34 4.32 7 5 C6.34 5 5.68 5 5 5 C5.33 6.32 5.66 7.64 6 9 C2.7 9 -0.6 9 -4 9 C-3.67 7.68 -3.34 6.36 -3 5 C-4.32 4.34 -5.64 3.68 -7 3 C-5.5459375 2.5359375 -5.5459375 2.5359375 -4.0625 2.0625 C-1.15934208 1.30476658 -1.15934208 1.30476658 0 0 Z " fill="#FFFFFF" transform="translate(187,9)"/>
<path d="M0 0 C1.9375 0.6875 1.9375 0.6875 4 2 C4.875 4.5 4.875 4.5 5 7 C3 9 3 9 -0.375 9.4375 C-4 9 -4 9 -6.4375 6.5 C-6.953125 5.675 -7.46875 4.85 -8 4 C-5.69 4 -3.38 4 -1 4 C-0.67 2.68 -0.34 1.36 0 0 Z " fill="#FFFFFF" transform="translate(18,90)"/>
<path d="M0 0 C1.9375 0.3125 1.9375 0.3125 4 1 C4.33 1.99 4.66 2.98 5 4 C6.98 3.67 8.96 3.34 11 3 C10.34 4.65 9.68 6.3 9 8 C5.75 8.75 5.75 8.75 2 9 C-0.4375 7.0625 -0.4375 7.0625 -2 5 C-1.34 3.35 -0.68 1.7 0 0 Z " fill="#FFFFFF" transform="translate(284,83)"/>
<path d="M0 0 C1.65 0.33 3.3 0.66 5 1 C5.33 2.32 5.66 3.64 6 5 C6.33 4.01 6.66 3.02 7 2 C8.65 1.67 10.3 1.34 12 1 C10.125 6.875 10.125 6.875 9 8 C5.43334424 8.2891883 2.9910778 8.02965993 0 6 C-1 3 -1 3 0 0 Z " fill="#FFFFFF" transform="translate(287,76)"/>
<path d="M0 0 C2.475 0.99 2.475 0.99 5 2 C5 2.66 5 3.32 5 4 C5.66 4 6.32 4 7 4 C7.66 2.68 8.32 1.36 9 0 C9.99 0.33 10.98 0.66 12 1 C12.125 3.375 12.125 3.375 12 6 C10 8 10 8 8.125 8.046875 C7.42375 7.94890625 6.7225 7.8509375 6 7.75 C4.948125 7.61851563 4.948125 7.61851563 3.875 7.484375 C2 7 2 7 0 5 C-0.125 2.375 -0.125 2.375 0 0 Z " fill="#FFFFFF" transform="translate(288,60)"/>
<path d="M0 0 C0.99 0.33 1.98 0.66 3 1 C3.33 1.99 3.66 2.98 4 4 C4.33 3.67 4.66 3.34 5 3 C6.99958364 2.95919217 9.00045254 2.95745644 11 3 C9.5625 5.5 9.5625 5.5 7 8 C3.93763201 8.60920997 1.04873017 8.70626954 -2 8 C-2.66 7.01 -3.32 6.02 -4 5 C-2.68 3.35 -1.36 1.7 0 0 Z " fill="#FFFFFF" transform="translate(15,36)"/>
<path d="M0 0 C3.465 1.98 3.465 1.98 7 4 C7 5.32 7 6.64 7 8 C-2.41002278 9.51708428 -2.41002278 9.51708428 -7 7 C-7 6.34 -7 5.68 -7 5 C-3.98968256 4.06576355 -3.13349732 3.95550089 0 5 C-0.2784375 4.0409375 -0.2784375 4.0409375 -0.5625 3.0625 C-0.706875 2.381875 -0.85125 1.70125 -1 1 C-0.67 0.67 -0.34 0.34 0 0 Z " fill="#FFFFFF" transform="translate(265,23)"/>
<path d="M0 0 C0.99 0.33 1.98 0.66 3 1 C3.33 1.99 3.66 2.98 4 4 C5.98 4 7.96 4 10 4 C8.375 6.5 8.375 6.5 6 9 C2.75 9.3125 2.75 9.3125 0 9 C0 8.34 0 7.68 0 7 C-0.99 7 -1.98 7 -3 7 C-2.25 2.25 -2.25 2.25 0 0 Z " fill="#FFFFFF" transform="translate(280,90)"/>
<path d="M0 0 C3.73487777 0.4979837 5.81237635 0.87491756 9 3 C9 3.99 9 4.98 9 6 C5.8936005 7.84398144 3.94718528 8.2039901 0.375 7.75 C-0.78902344 7.61851563 -0.78902344 7.61851563 -1.9765625 7.484375 C-4 7 -4 7 -6 5 C-2.535 4.505 -2.535 4.505 1 4 C0.67 2.68 0.34 1.36 0 0 Z M3 4 C4 6 4 6 4 6 Z " fill="#FFFFFF" transform="translate(253,19)"/>
<path d="M0 0 C0 1.32 0 2.64 0 4 C-0.33 4.33 -0.66 4.66 -1 5 C1.97 5.495 1.97 5.495 5 6 C2.13700494 8.86299506 0.34147716 8.99421225 -3.6875 9.0625 C-4.780625 9.041875 -5.87375 9.02125 -7 9 C-7.33 7.35 -7.66 5.7 -8 4 C-2.25 0 -2.25 0 0 0 Z M-5 5 C-4 7 -4 7 -4 7 Z " fill="#FFFFFF" transform="translate(258,107)"/>
<path d="M0 0 C0.33 0.66 0.66 1.32 1 2 C2.97888961 2.72693904 4.97954558 3.39816251 7 4 C3.25 7 3.25 7 1 7 C0.67 7.66 0.34 8.32 0 9 C-0.598125 8.54625 -1.19625 8.0925 -1.8125 7.625 C-3.50590652 6.36704087 -5.24477086 5.17015276 -7 4 C-6.030625 3.525625 -5.06125 3.05125 -4.0625 2.5625 C-1.19522563 1.29806053 -1.19522563 1.29806053 0 0 Z " fill="#FFFFFF" transform="translate(150,111)"/>
</svg>
