<?xml version="1.0" standalone="no"?>
<!DOCTYPE svg PUBLIC "-//W3C//DTD SVG 20010904//EN"
 "http://www.w3.org/TR/2001/REC-SVG-20010904/DTD/svg10.dtd">
<svg version="1.0" xmlns="http://www.w3.org/2000/svg"
 width="225.000000pt" height="225.000000pt" viewBox="0 0 225.000000 225.000000"
 preserveAspectRatio="xMidYMid meet">

<g transform="translate(0.000000,225.000000) scale(0.100000,-0.100000)"
fill="#000000" stroke="none">
<path d="M593 1389 c-18 -5 -70 -45 -119 -92 -94 -88 -99 -85 -41 26 16 31 27
60 24 64 -4 3 -32 -15 -63 -41 -58 -48 -100 -59 -111 -30 -3 9 -1 25 5 35 16
25 15 29 -7 29 -29 0 -81 -54 -81 -83 0 -27 32 -57 60 -57 9 0 33 9 54 19 46
24 45 18 -25 -86 -53 -80 -97 -133 -110 -133 -4 0 -5 15 -2 34 4 28 1 39 -20
60 -31 31 -50 33 -77 6 -24 -24 -26 -67 -5 -107 8 -15 17 -40 20 -55 3 -19 17
-32 47 -47 71 -33 147 -36 288 -10 196 36 376 32 715 -16 499 -69 728 -62 937
32 55 24 56 25 37 44 -10 10 -16 25 -13 33 4 10 -18 3 -63 -20 -122 -62 -241
-86 -453 -91 -168 -4 -208 -2 -430 28 -314 41 -528 45 -720 11 -163 -29 -217
-29 -260 1 -49 33 -49 47 0 47 74 0 141 55 175 143 10 27 25 47 37 50 28 8 34
-18 14 -72 -24 -67 -21 -99 8 -107 29 -7 60 8 104 50 l33 31 -6 -26 c-4 -18
-1 -31 10 -43 21 -21 33 -20 74 5 34 20 42 18 54 -15 9 -26 68 12 149 96 63
64 90 85 94 75 3 -8 -10 -37 -30 -65 -39 -53 -45 -82 -21 -102 20 -17 58 -6
99 30 39 35 46 37 39 11 -5 -21 21 -51 44 -51 9 0 31 9 49 21 29 17 34 18 34
5 0 -9 11 -18 25 -22 28 -7 76 26 139 96 20 22 39 40 42 40 3 0 -8 -25 -25
-55 -35 -61 -39 -85 -15 -85 16 0 42 24 117 108 51 56 63 53 32 -9 -51 -99
-13 -127 75 -57 48 38 53 40 47 19 -14 -56 36 -80 86 -41 l26 21 11 -21 c19
-36 76 -20 122 35 17 20 17 20 18 -8 0 -20 7 -31 26 -39 22 -10 32 -9 65 10
31 18 39 19 39 8 0 -25 38 -29 73 -7 42 25 92 79 84 88 -4 3 -18 -4 -32 -17
-39 -37 -42 -15 -7 56 37 74 40 99 13 114 -16 8 -23 6 -34 -11 -8 -11 -23 -20
-34 -19 -62 7 -75 0 -146 -75 -59 -64 -97 -91 -97 -70 0 3 22 49 49 103 64
128 67 139 45 163 -9 10 -20 19 -24 19 -4 0 -24 -31 -45 -70 -36 -66 -40 -70
-73 -70 -44 0 -90 -29 -137 -86 -38 -47 -82 -81 -91 -71 -3 3 9 33 26 67 50
98 20 120 -68 50 l-51 -39 6 32 c3 24 0 37 -12 47 -16 13 -21 11 -44 -19 -49
-65 -130 -146 -137 -138 -5 4 6 37 24 73 39 79 41 104 8 104 -14 0 -28 -5 -31
-11 -4 -6 -19 -10 -33 -9 -67 5 -75 0 -153 -82 -42 -46 -80 -80 -83 -77 -4 3
7 36 24 73 16 38 30 72 30 78 0 6 -17 8 -45 4 -43 -7 -45 -6 -45 18 0 19 -5
26 -20 26 -24 0 -44 -34 -36 -64 4 -18 -6 -36 -48 -82 -30 -32 -57 -55 -62
-51 -4 4 6 37 24 73 36 72 39 96 16 115 -14 11 -19 10 -34 -11 -12 -16 -24
-21 -39 -17 -43 11 -87 -12 -140 -73 -61 -70 -98 -82 -85 -27 4 17 8 46 8 62
1 27 -3 31 -34 35 l-34 5 38 39 c37 36 41 38 89 33 43 -4 54 -1 74 19 28 28
29 50 4 64 -11 5 -21 10 -23 9 -2 0 -17 -5 -35 -10z m137 -211 c-1 -27 -60
-108 -79 -108 -21 0 -11 36 21 78 31 41 58 55 58 30z m470 1 c0 -26 -62 -109
-82 -109 -17 0 -7 39 22 78 28 39 60 56 60 31z m830 -2 c0 -15 -24 -52 -58
-90 -29 -30 -49 -19 -30 17 33 65 88 110 88 73z m-307 -3 c8 -9 -26 -75 -51
-97 -27 -25 -46 -14 -31 16 17 34 59 87 68 87 4 0 10 -3 14 -6z m-1587 -79 c9
-22 -3 -45 -20 -39 -17 6 -29 32 -20 45 8 14 34 11 40 -6z"/>
<path d="M2063 1325 c-38 -35 -44 -44 -28 -45 25 0 125 46 125 58 0 12 -22 32
-36 32 -7 0 -34 -20 -61 -45z"/>
<path d="M2124 1039 c-4 -7 -3 -9 2 -6 6 3 16 2 24 -4 10 -6 11 -9 3 -9 -7 0
-13 -4 -13 -8 0 -5 6 -9 14 -9 18 0 14 27 -7 38 -10 6 -18 5 -23 -2z"/>
</g>
</svg>
